
Encoded By .......: BigPerm1828
Runtime ..........: 2h 2mn
File Size ........: 1.41 GB
Resolution .......: 704x396
IMDb URL .........: http://www.imdb.com/title/tt1198396/
Language .........: English
Video
ID : 0
Format : MPEG-4 Visual
Format profile : Advanced Simple@L5
Format settings, BVOP : Yes
Format settings, QPel : No
Format settings, GMC : No warppoints
Format settings, Matrix : Default (H.263)
Codec ID : XVID
Codec ID/Hint : XviD
Duration : 2h 2mn
Bit rate : 44.6 Kbps
Width : 704 pixels
Height : 396 pixels
Display aspect ratio : 16:9
Frame rate : 29.970 fps
Color space : YUV
Chroma subsampling : 4:2:0
Bit depth : 8 bits
Scan type : Progressive
Compression mode : Lossy
Bits/(Pixel*Frame) : 0.005
Stream size : 38.9 MiB (3%)
Writing library : XviD 1.2.1 (UTC 2008-12-04)

Audio
ID : 1
Format : AC-3
Format/Info : Audio Coding 3
Codec ID : 2000
Duration : 2h 2mn
Bit rate mode : Constant
Bit rate : 448 Kbps
Channel(s) : 6 channels
Sampling rate : 48.0 KHz
Bit depth : 16 bits
Compression mode : Lossy
Stream size : 391 MiB (27%)
Alignment : Aligned on interleaves
 
http://leetleech.org/images/91762653190932281384.png
 
http://leetleech.org/images/66177150721001598102.png
 
http://leetleech.org/images/93946295578966877855.png